<svg xmlns="http://www.w3.org/2000/svg" viewBox="0 0 768 1024" role="img" aria-labelledby="title desc">
  <title id="title">Pianist seated at a grand piano</title>
  <desc id="desc">A portrait-style image of a pianist seated at a black grand piano in front of tall windows.</desc>
  <defs>
    <linearGradient id="windowSky" x1="0" x2="0" y1="0" y2="1">
      <stop offset="0" stop-color="#94b4cf"/>
      <stop offset=".42" stop-color="#d8dbd5"/>
      <stop offset="1" stop-color="#efe5d6"/>
    </linearGradient>
    <linearGradient id="floor" x1="0" x2="1" y1="0" y2="1">
      <stop offset="0" stop-color="#d8aa7b"/>
      <stop offset="1" stop-color="#f0d0a7"/>
    </linearGradient>
    <linearGradient id="piano" x1="0" x2="1" y1="0" y2="1">
      <stop offset="0" stop-color="#070707"/>
      <stop offset=".55" stop-color="#171717"/>
      <stop offset="1" stop-color="#020202"/>
    </linearGradient>
    <linearGradient id="reflection" x1="0" x2="1" y1="0" y2="0">
      <stop offset="0" stop-color="#2a2a2a" stop-opacity=".3"/>
      <stop offset=".5" stop-color="#ffffff" stop-opacity=".16"/>
      <stop offset="1" stop-color="#111" stop-opacity=".1"/>
    </linearGradient>
    <filter id="softBlur" x="-5%" y="-5%" width="110%" height="110%">
      <feGaussianBlur stdDeviation="7"/>
    </filter>
  </defs>
  <rect width="768" height="1024" fill="#efe8de"/>
  <rect width="768" height="660" fill="url(#windowSky)"/>
  <g opacity=".33" filter="url(#softBlur)">
    <rect x="16" y="92" width="132" height="238" rx="8" fill="#6f675f"/>
    <rect x="190" y="78" width="228" height="112" rx="10" fill="#5b5149"/>
    <rect x="10" y="330" width="728" height="190" fill="#958f85"/>
    <rect x="42" y="372" width="640" height="28" fill="#f6f1e9"/>
    <g fill="#f3eee6">
      <rect x="20" y="432" width="64" height="26"/>
      <rect x="112" y="432" width="64" height="26"/>
      <rect x="204" y="432" width="64" height="26"/>
      <rect x="296" y="432" width="64" height="26"/>
      <rect x="388" y="432" width="64" height="26"/>
      <rect x="480" y="432" width="64" height="26"/>
      <rect x="572" y="432" width="64" height="26"/>
    </g>
  </g>
  <g fill="#4f4843">
    <rect x="148" width="34" height="708"/>
    <rect x="482" width="27" height="708"/>
    <rect x="718" width="32" height="708"/>
  </g>
  <rect x="0" y="660" width="768" height="364" fill="url(#floor)"/>
  <g opacity=".24" stroke="#bd8d5e" stroke-width="3">
    <path d="M0 738h768"/>
    <path d="M0 818h768"/>
    <path d="M0 898h768"/>
    <path d="M0 978h768"/>
    <path d="M102 660 2 1024"/>
    <path d="M262 660 168 1024"/>
    <path d="M426 660 340 1024"/>
    <path d="M602 660 522 1024"/>
  </g>
  <g>
    <ellipse cx="440" cy="892" rx="306" ry="54" fill="#2b211b" opacity=".22"/>
    <rect x="260" y="420" width="438" height="156" rx="14" fill="url(#piano)"/>
    <path d="M466 391c92-18 193-2 296 42v117H444c-10-64-2-117 22-159Z" fill="#0a0a0a"/>
    <path d="M472 402c86-10 176 8 270 48" fill="none" stroke="#292929" stroke-width="10"/>
    <rect x="268" y="510" width="382" height="32" rx="4" fill="#121212"/>
    <rect x="318" y="543" width="287" height="17" fill="#f8ead3"/>
    <g fill="#1b1b1b">
      <rect x="338" y="543" width="8" height="17"/>
      <rect x="364" y="543" width="8" height="17"/>
      <rect x="392" y="543" width="8" height="17"/>
      <rect x="418" y="543" width="8" height="17"/>
      <rect x="446" y="543" width="8" height="17"/>
      <rect x="474" y="543" width="8" height="17"/>
      <rect x="500" y="543" width="8" height="17"/>
      <rect x="528" y="543" width="8" height="17"/>
      <rect x="556" y="543" width="8" height="17"/>
    </g>
    <rect x="265" y="432" width="246" height="56" rx="9" fill="url(#reflection)"/>
    <rect x="558" y="682" width="22" height="250" fill="#080808"/>
    <rect x="666" y="618" width="24" height="318" fill="#090909"/>
    <rect x="548" y="920" width="44" height="24" rx="8" fill="#d5a84f"/>
    <rect x="655" y="922" width="50" height="25" rx="9" fill="#d5a84f"/>
    <path d="M560 666 450 930" stroke="#0a0a0a" stroke-width="11" stroke-linecap="round"/>
    <rect x="463" y="346" width="68" height="128" rx="6" fill="#161616"/>
    <rect x="473" y="357" width="45" height="105" rx="2" fill="#d7d4cd"/>
    <path d="M486 368c8 28 12 55 12 84" stroke="#73879a" stroke-width="4" fill="none"/>
  </g>
  <g>
    <rect x="88" y="648" width="230" height="48" rx="22" fill="#1d1d1d"/>
    <rect x="120" y="690" width="24" height="195" fill="#181818"/>
    <rect x="278" y="690" width="22" height="206" fill="#181818"/>
    <rect x="72" y="878" width="98" height="18" rx="9" fill="#181818"/>
    <rect x="250" y="890" width="72" height="18" rx="9" fill="#181818"/>
  </g>
  <g>
    <path d="M203 347c-43 8-70 48-71 99l12 122c4 43 32 76 75 82l81 11c24 4 42-15 36-39l-23-82 16-104c6-40-17-80-54-93-22-7-47-6-72 4Z" fill="#171514"/>
    <path d="M198 359c-38 12-55 51-48 110 6 52 14 103 28 154 28 14 66 17 112 10l-9-82 24-105c-12-67-47-96-107-87Z" fill="#191716"/>
    <ellipse cx="225" cy="329" rx="48" ry="55" fill="#553626"/>
    <path d="M177 323c5-55 40-78 86-58 36 16 54 51 48 101-33-2-69-7-108-15-13-3-22-12-26-28Z" fill="#241b16"/>
    <path d="M269 337c10 9 21 12 35 9" stroke="#dbc2a0" stroke-width="6" stroke-linecap="round"/>
    <path d="M308 549c-7 48-4 94 7 139l52 12c14 3 28-7 30-22-25-33-40-72-45-117Z" fill="#171514"/>
    <path d="M250 639c10 69 26 125 48 168h61c3-63-8-121-34-175Z" fill="#151515"/>
    <path d="M324 806c21 20 44 31 70 32 10 0 17-8 17-18-18-13-35-24-52-33h-42Z" fill="#080808"/>
    <path d="M257 802c-13 12-20 28-20 49 20 9 43 9 67 0l-1-47Z" fill="#080808"/>
    <path d="M292 524c19 49 34 83 46 102 10 14 29 3 24-13l-42-112Z" fill="#d0ad86"/>
    <path d="M350 609c22-2 45-1 68 3" stroke="#d0ad86" stroke-width="13" stroke-linecap="round"/>
  </g>
</svg>
